<?xml version="1.0" encoding="UTF-8"?>
<!-- Generator: Adobe Illustrator 19.0.0, SVG Export Plug-In . SVG Version: 6.00 Build 0)  -->
<svg enable-background="new 0 0 473.931 473.931" version="1.1" viewBox="0 0 473.93 473.93" xml:space="preserve" xmlns="http://www.w3.org/2000/svg" xmlns:cc="http://creativecommons.org/ns#" xmlns:dc="http://purl.org/dc/elements/1.1/" xmlns:rdf="http://www.w3.org/1999/02/22-rdf-syntax-ns#"><metadata><rdf:RDF><cc:Work rdf:about=""><dc:format>image/svg+xml</dc:format><dc:type rdf:resource="http://purl.org/dc/dcmitype/StillImage"/><dc:title/></cc:Work></rdf:RDF></metadata><g>
<circle cx="236.97" cy="236.97" r="236.97" fill="#f6f6f6"/>
<rect transform="matrix(-.1577 -.9875 .9875 -.1577 39.17 519.29)" x="133.5" y="94.258" width="215.12" height="297.36" fill="#dedede"/>
<polygon points="396.68 315.55 118.42 361.36 86.88 168.06 365.15 122.26" fill="#f3f3f3"/>
<path d="m387.88 281.51-43.853-31.446s-13.07-12.123-23.001-9.912c-8.932 2.002-17.609 15.023-19.244 17.59l-14.701-10.541s-15.326-14.226-26.959-11.618c-11.637 2.601-22.971 21.268-22.971 21.268l-3.222 4.483-27.674-19.854s-18.832-17.478-33.126-14.282c-14.297 3.195-28.232 26.147-28.232 26.147l-33.399 46.555 9.59 58.068 271.99-44.781-5.197-31.677z" fill="#dadada"/>
<g fill="#cacaca">
	<path d="m250.89 191.17c-0.015-0.318 0.15-0.621 0.086-0.943-0.819-4.954-6.829-8.082-13.429-7.001-0.864 0.146-1.59 0.513-2.395 0.778-2.406-2.305-6.32-3.558-10.645-2.847-5.594 0.92-9.534 4.692-9.931 8.831-5.253 1.968-8.756 6.181-8.034 10.593 0.688 4.172 4.894 7.012 10.099 7.461 2.327 3.532 7.416 5.557 13.055 4.632 5.111-0.842 9.066-3.843 10.57-7.431 1.396 0.225 2.862 0.247 4.393-7e-3 5.863-0.958 10.024-5.306 9.306-9.71-0.295-1.808-1.508-3.241-3.075-4.356z"/>
	<path d="m308.62 193.23c-0.079-0.221-0.258-0.389-0.292-0.61-0.576-3.514 2.761-7.005 7.446-7.772 0.621-0.105 1.194-0.022 1.785-0.022 1.096-2.107 3.454-3.843 6.511-4.344 3.981-0.662 7.491 0.984 8.711 3.678 3.981 0.135 7.3 2.17 7.805 5.306 0.494 2.967-1.706 5.833-5.089 7.326-0.756 2.896-3.731 5.426-7.734 6.084-3.633 0.599-6.982-0.528-8.816-2.586-0.883 0.46-1.875 0.812-2.956 0.992-4.168 0.688-7.959-1.291-8.471-4.419-0.217-1.279 0.277-2.518 1.1-3.633z"/>
</g>

















</g></svg>
