<?xml version="1.0" encoding="UTF-8"?>
<!-- Generator: Adobe Illustrator 16.0.0, SVG Export Plug-In . SVG Version: 6.00 Build 0)  -->
<svg width="408px" height="408px" enable-background="new 0 0 408 408" version="1.1" viewBox="0 0 408 408" xml:space="preserve" xmlns="http://www.w3.org/2000/svg" xmlns:cc="http://creativecommons.org/ns#" xmlns:dc="http://purl.org/dc/elements/1.1/" xmlns:rdf="http://www.w3.org/1999/02/22-rdf-syntax-ns#"><metadata><rdf:RDF><cc:Work rdf:about=""><dc:format>image/svg+xml</dc:format><dc:type rdf:resource="http://purl.org/dc/dcmitype/StillImage"/><dc:title/></cc:Work></rdf:RDF></metadata>
<g fill="#bdbdbd">
	<g id="more-vert" fill="#bdbdbd">
		<path d="m204 102c28.05 0 51-22.95 51-51s-22.95-51-51-51-51 22.95-51 51 22.95 51 51 51zm0 51c-28.05 0-51 22.95-51 51s22.95 51 51 51 51-22.95 51-51-22.95-51-51-51zm0 153c-28.05 0-51 22.95-51 51s22.95 51 51 51 51-22.95 51-51-22.95-51-51-51z" fill="#bdbdbd"/>
	</g>
</g>















</svg>
